<mxfile host="app.diagrams.net" modified="2022-07-19T12:48:03.823Z" agent="5.0 (Windows NT 10.0; WOW64) AppleWebKit/537.36 (KHTML, like Gecko) Chrome/80.0.3987.87 Safari/537.36 SE 2.X MetaSr 1.0" etag="04BHKpMWcCYr-qKEDujr" version="18.1.2" type="github">
  <diagram id="C5RBs43oDa-KdzZeNtuy" name="Page-1">
    <mxGraphModel dx="2249" dy="708" grid="1" gridSize="10" guides="1" tooltips="1" connect="1" arrows="1" fold="1" page="1" pageScale="1" pageWidth="827" pageHeight="1169" math="0" shadow="0">
      <root>
        <mxCell id="WIyWlLk6GJQsqaUBKTNV-0" />
        <mxCell id="WIyWlLk6GJQsqaUBKTNV-1" parent="WIyWlLk6GJQsqaUBKTNV-0" />
        <mxCell id="QYNvbnqAfwnq2PlY06qU-0" value="&lt;font style=&quot;font-size: 14px;&quot;&gt;主播侧&lt;/font&gt;" style="shape=umlActor;verticalLabelPosition=bottom;verticalAlign=top;html=1;outlineConnect=0;" vertex="1" parent="WIyWlLk6GJQsqaUBKTNV-1">
          <mxGeometry x="-17" y="180" width="30" height="60" as="geometry" />
        </mxCell>
        <mxCell id="QYNvbnqAfwnq2PlY06qU-1" value="&lt;font style=&quot;font-size: 14px;&quot;&gt;用户侧&lt;/font&gt;" style="shape=umlActor;verticalLabelPosition=bottom;verticalAlign=top;html=1;outlineConnect=0;" vertex="1" parent="WIyWlLk6GJQsqaUBKTNV-1">
          <mxGeometry x="640" y="160" width="30" height="60" as="geometry" />
        </mxCell>
        <mxCell id="QYNvbnqAfwnq2PlY06qU-3" value="后羿系统" style="shape=process;whiteSpace=wrap;html=1;backgroundOutline=1;fontSize=18;" vertex="1" parent="WIyWlLk6GJQsqaUBKTNV-1">
          <mxGeometry x="675" y="380" width="120" height="60" as="geometry" />
        </mxCell>
        <mxCell id="QYNvbnqAfwnq2PlY06qU-4" value="&lt;span style=&quot;font-size: 18px;&quot;&gt;获取备选主播池&lt;/span&gt;" style="rounded=1;whiteSpace=wrap;html=1;fontSize=14;" vertex="1" parent="WIyWlLk6GJQsqaUBKTNV-1">
          <mxGeometry x="675" y="470" width="120" height="60" as="geometry" />
        </mxCell>
        <mxCell id="QYNvbnqAfwnq2PlY06qU-7" value="" style="group" vertex="1" connectable="0" parent="WIyWlLk6GJQsqaUBKTNV-1">
          <mxGeometry x="180" y="600" width="135" height="100" as="geometry" />
        </mxCell>
        <mxCell id="QYNvbnqAfwnq2PlY06qU-5" value="Redis" style="shape=cylinder3;whiteSpace=wrap;html=1;boundedLbl=1;backgroundOutline=1;size=15;fontSize=18;" vertex="1" parent="QYNvbnqAfwnq2PlY06qU-7">
          <mxGeometry x="2.5" width="130" height="60" as="geometry" />
        </mxCell>
        <mxCell id="QYNvbnqAfwnq2PlY06qU-6" value="&lt;font style=&quot;font-size: 14px;&quot;&gt;使用了曝光卡的&lt;br&gt;所有主播&lt;/font&gt;" style="text;html=1;strokeColor=none;fillColor=none;align=center;verticalAlign=middle;whiteSpace=wrap;rounded=0;fontSize=18;" vertex="1" parent="QYNvbnqAfwnq2PlY06qU-7">
          <mxGeometry y="70" width="135" height="30" as="geometry" />
        </mxCell>
        <mxCell id="QYNvbnqAfwnq2PlY06qU-8" value="&lt;span style=&quot;font-size: 18px;&quot;&gt;主播曝光过滤&lt;/span&gt;" style="rounded=1;whiteSpace=wrap;html=1;fontSize=14;" vertex="1" parent="WIyWlLk6GJQsqaUBKTNV-1">
          <mxGeometry x="675" y="565" width="120" height="60" as="geometry" />
        </mxCell>
        <mxCell id="QYNvbnqAfwnq2PlY06qU-9" value="" style="group" vertex="1" connectable="0" parent="WIyWlLk6GJQsqaUBKTNV-1">
          <mxGeometry x="356" y="600" width="135" height="100" as="geometry" />
        </mxCell>
        <mxCell id="QYNvbnqAfwnq2PlY06qU-10" value="Redis" style="shape=cylinder3;whiteSpace=wrap;html=1;boundedLbl=1;backgroundOutline=1;size=15;fontSize=18;" vertex="1" parent="QYNvbnqAfwnq2PlY06qU-9">
          <mxGeometry x="2.5" width="130" height="60" as="geometry" />
        </mxCell>
        <mxCell id="QYNvbnqAfwnq2PlY06qU-11" value="&lt;font style=&quot;font-size: 14px;&quot;&gt;使用了曝光卡的&lt;br&gt;主播的曝光配置&lt;/font&gt;" style="text;html=1;strokeColor=none;fillColor=none;align=center;verticalAlign=middle;whiteSpace=wrap;rounded=0;fontSize=18;" vertex="1" parent="QYNvbnqAfwnq2PlY06qU-9">
          <mxGeometry y="70" width="135" height="30" as="geometry" />
        </mxCell>
        <mxCell id="QYNvbnqAfwnq2PlY06qU-12" value="" style="group" vertex="1" connectable="0" parent="WIyWlLk6GJQsqaUBKTNV-1">
          <mxGeometry x="510" y="820" width="135" height="100" as="geometry" />
        </mxCell>
        <mxCell id="QYNvbnqAfwnq2PlY06qU-13" value="Redis" style="shape=cylinder3;whiteSpace=wrap;html=1;boundedLbl=1;backgroundOutline=1;size=15;fontSize=18;" vertex="1" parent="QYNvbnqAfwnq2PlY06qU-12">
          <mxGeometry x="2.5" width="130" height="60" as="geometry" />
        </mxCell>
        <mxCell id="QYNvbnqAfwnq2PlY06qU-14" value="&lt;font style=&quot;font-size: 14px;&quot;&gt;各主播的实时曝光值&lt;/font&gt;" style="text;html=1;strokeColor=none;fillColor=none;align=center;verticalAlign=middle;whiteSpace=wrap;rounded=0;fontSize=18;" vertex="1" parent="QYNvbnqAfwnq2PlY06qU-12">
          <mxGeometry y="70" width="135" height="30" as="geometry" />
        </mxCell>
        <mxCell id="QYNvbnqAfwnq2PlY06qU-15" value="&lt;font style=&quot;font-size: 18px;&quot;&gt;曝光达标&lt;/font&gt;" style="rhombus;whiteSpace=wrap;html=1;fontSize=14;" vertex="1" parent="WIyWlLk6GJQsqaUBKTNV-1">
          <mxGeometry x="685" y="650" width="100" height="80" as="geometry" />
        </mxCell>
        <mxCell id="QYNvbnqAfwnq2PlY06qU-16" value="&lt;span style=&quot;font-size: 18px;&quot;&gt;已推送主播记录&lt;/span&gt;" style="rounded=1;whiteSpace=wrap;html=1;fontSize=14;" vertex="1" parent="WIyWlLk6GJQsqaUBKTNV-1">
          <mxGeometry x="675" y="780" width="120" height="60" as="geometry" />
        </mxCell>
        <mxCell id="QYNvbnqAfwnq2PlY06qU-17" value="&lt;span style=&quot;font-size: 18px;&quot;&gt;推送主播&lt;/span&gt;" style="rounded=1;whiteSpace=wrap;html=1;fontSize=14;" vertex="1" parent="WIyWlLk6GJQsqaUBKTNV-1">
          <mxGeometry x="675" y="890" width="120" height="60" as="geometry" />
        </mxCell>
        <mxCell id="QYNvbnqAfwnq2PlY06qU-18" value="&lt;span style=&quot;font-size: 18px;&quot;&gt;显示主播列表&lt;/span&gt;" style="rounded=1;whiteSpace=wrap;html=1;fontSize=14;" vertex="1" parent="WIyWlLk6GJQsqaUBKTNV-1">
          <mxGeometry x="510" y="280" width="120" height="40" as="geometry" />
        </mxCell>
        <mxCell id="QYNvbnqAfwnq2PlY06qU-19" value="&lt;span style=&quot;font-size: 18px;&quot;&gt;打点数据&lt;/span&gt;" style="rounded=1;whiteSpace=wrap;html=1;fontSize=14;" vertex="1" parent="WIyWlLk6GJQsqaUBKTNV-1">
          <mxGeometry x="510" y="370" width="120" height="60" as="geometry" />
        </mxCell>
        <mxCell id="QYNvbnqAfwnq2PlY06qU-20" value="&lt;span style=&quot;font-size: 18px;&quot;&gt;Flink Jar&lt;br&gt;补齐tid&lt;br&gt;&lt;/span&gt;" style="rounded=1;whiteSpace=wrap;html=1;fontSize=14;" vertex="1" parent="WIyWlLk6GJQsqaUBKTNV-1">
          <mxGeometry x="510" y="480" width="120" height="60" as="geometry" />
        </mxCell>
        <mxCell id="QYNvbnqAfwnq2PlY06qU-21" value="&lt;span style=&quot;font-size: 18px;&quot;&gt;打点数据写入新topic&lt;br&gt;&lt;/span&gt;" style="rounded=1;whiteSpace=wrap;html=1;fontSize=14;" vertex="1" parent="WIyWlLk6GJQsqaUBKTNV-1">
          <mxGeometry x="510" y="585" width="120" height="60" as="geometry" />
        </mxCell>
        <mxCell id="QYNvbnqAfwnq2PlY06qU-22" value="&lt;span style=&quot;font-size: 18px;&quot;&gt;Flink SQL&lt;br&gt;计算曝光&lt;br&gt;&lt;/span&gt;" style="rounded=1;whiteSpace=wrap;html=1;fontSize=14;" vertex="1" parent="WIyWlLk6GJQsqaUBKTNV-1">
          <mxGeometry x="510" y="690" width="120" height="60" as="geometry" />
        </mxCell>
        <mxCell id="QYNvbnqAfwnq2PlY06qU-25" value="后羿&lt;br&gt;管理后台" style="shape=process;whiteSpace=wrap;html=1;backgroundOutline=1;fontSize=18;" vertex="1" parent="WIyWlLk6GJQsqaUBKTNV-1">
          <mxGeometry x="61" y="380" width="120" height="60" as="geometry" />
        </mxCell>
        <mxCell id="QYNvbnqAfwnq2PlY06qU-26" value="&lt;font style=&quot;font-size: 14px;&quot;&gt;离线ODPS&lt;/font&gt;" style="shape=datastore;whiteSpace=wrap;html=1;fontSize=18;" vertex="1" parent="WIyWlLk6GJQsqaUBKTNV-1">
          <mxGeometry x="77" y="525" width="88" height="60" as="geometry" />
        </mxCell>
        <mxCell id="QYNvbnqAfwnq2PlY06qU-27" value="&lt;span style=&quot;font-size: 18px;&quot;&gt;更新曝光卡记录表&lt;/span&gt;" style="rounded=1;whiteSpace=wrap;html=1;fontSize=14;" vertex="1" parent="WIyWlLk6GJQsqaUBKTNV-1">
          <mxGeometry x="310" y="280" width="120" height="60" as="geometry" />
        </mxCell>
        <mxCell id="QYNvbnqAfwnq2PlY06qU-29" value="玄武平台" style="shape=process;whiteSpace=wrap;html=1;backgroundOutline=1;fontSize=18;" vertex="1" parent="WIyWlLk6GJQsqaUBKTNV-1">
          <mxGeometry x="310" y="480" width="120" height="60" as="geometry" />
        </mxCell>
        <mxCell id="QYNvbnqAfwnq2PlY06qU-31" value="&lt;font style=&quot;font-size: 18px;&quot;&gt;进入&lt;br&gt;推荐位&lt;/font&gt;" style="strokeWidth=2;html=1;shape=mxgraph.flowchart.start_1;whiteSpace=wrap;fontSize=14;" vertex="1" parent="WIyWlLk6GJQsqaUBKTNV-1">
          <mxGeometry x="675" y="270" width="100" height="60" as="geometry" />
        </mxCell>
        <mxCell id="QYNvbnqAfwnq2PlY06qU-32" value="&lt;font style=&quot;font-size: 16px;&quot;&gt;点击&lt;br style=&quot;&quot;&gt;使用曝光卡&lt;/font&gt;" style="strokeWidth=2;html=1;shape=mxgraph.flowchart.start_1;whiteSpace=wrap;fontSize=14;" vertex="1" parent="WIyWlLk6GJQsqaUBKTNV-1">
          <mxGeometry x="61" y="280" width="100" height="60" as="geometry" />
        </mxCell>
        <mxCell id="QYNvbnqAfwnq2PlY06qU-34" value="&lt;font style=&quot;font-size: 16px;&quot;&gt;查看&lt;br style=&quot;&quot;&gt;曝光卡进度&lt;/font&gt;" style="strokeWidth=2;html=1;shape=mxgraph.flowchart.start_1;whiteSpace=wrap;fontSize=14;" vertex="1" parent="WIyWlLk6GJQsqaUBKTNV-1">
          <mxGeometry x="-150" y="280" width="100" height="60" as="geometry" />
        </mxCell>
        <mxCell id="QYNvbnqAfwnq2PlY06qU-35" value="&lt;font style=&quot;font-size: 18px;&quot;&gt;查看&lt;br&gt;主播列表&lt;br&gt;&lt;/font&gt;" style="strokeWidth=2;html=1;shape=mxgraph.flowchart.start_1;whiteSpace=wrap;fontSize=14;" vertex="1" parent="WIyWlLk6GJQsqaUBKTNV-1">
          <mxGeometry x="490" y="180" width="100" height="60" as="geometry" />
        </mxCell>
      </root>
    </mxGraphModel>
  </diagram>
</mxfile>
